<svg xmlns="http://www.w3.org/2000/svg" width="69.894" height="78.117" viewBox="0 0 69.894 78.117">
  <g id="research-svgrepo-com" transform="translate(-26.947 0)">
    <g id="Group_983" data-name="Group 983" transform="translate(26.947 0)">
      <g id="Group_982" data-name="Group 982" transform="translate(0 0)">
        <path id="Path_85" data-name="Path 85" d="M148.979,193.775a12.751,12.751,0,1,0-3.735-9.017A12.712,12.712,0,0,0,148.979,193.775Zm1.744-16.289a10.284,10.284,0,1,1-3.012,7.272A10.3,10.3,0,0,1,150.723,177.486Z" transform="translate(-127.195 -145.769)" fill="#e0474e"/>
        <path id="Path_86" data-name="Path 86" d="M95.517,65.743,84.428,54.626a30.746,30.746,0,0,0,4.2-14.351H93.96a2.9,2.9,0,0,0,2.083-.89,2.848,2.848,0,0,0,.795-2.113A39.081,39.081,0,0,0,59.569,0,2.855,2.855,0,0,0,57.455.8a2.9,2.9,0,0,0-.89,2.083V8.215a30.851,30.851,0,1,0,16.809,57.46l11.09,11.118a4.529,4.529,0,0,0,6.4,0l4.654-4.654a4.524,4.524,0,0,0,0-6.4Zm-12.9-12.928L81.309,51.5h0a4.531,4.531,0,0,0-5.407-.753l-2.257-2.257a18.343,18.343,0,0,0,2.57-8.213h9.942A28.286,28.286,0,0,1,82.621,52.815Zm-8.584-.445-2.91,2.91L69.3,53.453a18.794,18.794,0,0,0,2.911-2.909ZM59.032,2.88a.413.413,0,0,1,.128-.3.4.4,0,0,1,.3-.113A36.393,36.393,0,0,1,94.374,37.381a.4.4,0,0,1-.113.3.413.413,0,0,1-.3.128H76.221A18.5,18.5,0,0,0,59.032,20.532ZM57.747,22.954A16.031,16.031,0,0,1,73.791,38.99V39c0,.013,0,.027,0,.04s0,.022,0,.033A15.927,15.927,0,0,1,71.1,47.9a1.206,1.206,0,0,0-.095.14,16.219,16.219,0,0,1-4.263,4.241l-.027.018a16.043,16.043,0,1,1-8.964-29.343ZM57.8,67.425a28.384,28.384,0,0,1-1.233-56.741v9.842A18.507,18.507,0,1,0,67.242,54.882L69.5,57.143a4.53,4.53,0,0,0,.752,5.405l1.313,1.317A28.316,28.316,0,0,1,57.8,67.425ZM93.772,70.4l-4.654,4.654a2.06,2.06,0,0,1-2.909,0L74.453,63.264l-.037-.037L72,60.805A2.057,2.057,0,0,1,72,57.9l4.654-4.654a2.059,2.059,0,0,1,2.909,0l2.416,2.422.036.036L93.771,67.486a2.058,2.058,0,0,1,0,2.909Z" transform="translate(-26.947 0)" fill="#475677"/>
      </g>
    </g>
  </g>
</svg>
 