<svg xmlns="http://www.w3.org/2000/svg" width="83.833" height="71.75" viewBox="0 0 83.833 71.75">
  <g id="kids-couple-svgrepo-com" transform="translate(0 -1.761)">
    <g id="Group_984" data-name="Group 984" transform="translate(0 1.761)">
      <path id="Path_87" data-name="Path 87" d="M14.716,24.893a11,11,0,0,0,11-11.008c0-3.792,1.335-7.264-1.6-9.234-1.757-1.2-9.47-1.764-11.749-1.764-2.711,0-6.235,2.21-8.153,3.84-2.385,2.014-.5,3.788-.5,7.154A11,11,0,0,0,14.716,24.893ZM7.051,12.808a5.919,5.919,0,0,1,3.394.3l3.376-1.644s-1.719,2.484-.175,1.644a19.111,19.111,0,0,1,9.24-.288,8.33,8.33,0,0,1,.13,1.324,8.051,8.051,0,1,1-16.1,0A8.185,8.185,0,0,1,7.051,12.808Z" transform="translate(7.313 0.981)" fill="#ffbe58"/>
      <path id="Path_88" data-name="Path 88" d="M45.961,15.082a13.263,13.263,0,0,0-.24-1.856A13.053,13.053,0,0,0,31.927,1.766c-8.537.2-10.4,6.629-10.85,10.541a12.645,12.645,0,0,0-.563,3.013c-11.1,1.939-9.882,13.207-3.1,13.4a13.006,13.006,0,0,1,3.243-10.555,12.762,12.762,0,0,0,25.018.94,16.86,16.86,0,0,1,2.361,9.618C58.715,28.629,53.458,16.417,45.961,15.082Zm-12.706,10.2a9.2,9.2,0,0,1-9.168-8.993c1.822-.662,3.174-3.819,3.174-3.819s1.081.371,1.081,3.936c1.891.659,5.174-5.538,5.174-5.538v4.883c2.083.57,8.65-.185,8.65-.185l.244.206c0,.1.031.209.031.316A9.19,9.19,0,0,1,33.254,25.287Z" transform="translate(29.754 -1.761)" fill="#e0474e"/>
      <path id="Path_89" data-name="Path 89" d="M65.685,9.769H55.769L42.555,25.69,29.766,9.968H15.228L0,26.685l3.191,3.291,10.9-9.3V38.715h2.186V52.43h-1.39v1.609h6.331V38.715H23.59V54.039h6.317V52.43H28.521V38.715h2.652v-17.7l8.715,8.949,3.562-.878,1.973.494,9.872-11.3.563,4.478L46.69,38.513H57.265V52.231h-1.39v1.6H62.2v-1.6h.007V38.513H64.57V53.827H70.9v-1.6h-1.39V38.513h8.2L69.628,22.756l.443-5.511,7.717,10.342L82.9,26.315,70.664,9.769Z" transform="translate(0 17.71)" fill="#475677"/>
    </g>
  </g>
</svg>
