<svg id="Icon" xmlns="http://www.w3.org/2000/svg" width="70.043" height="70.043" viewBox="0 0 70.043 70.043">
  <path id="Path_21" data-name="Path 21" d="M967.469,405.619a32.8,32.8,0,0,1-22.576-9.038h4.5v-2.258h-6.779a1.128,1.128,0,0,0-1.129,1.129v.647l-.119.106c.038.043.08.083.119.127v5.9h2.26v-3.624a35.062,35.062,0,0,0,23.723,9.272q.586,0,1.165-.021l-.071-2.257c-.364.011-.729.018-1.094.018Zm0,0" transform="translate(-932.448 -337.836)" fill="#34b4b3"/>
  <path id="Path_22" data-name="Path 22" d="M971.029,399.936l1.067,1.991q1.011-.54,1.981-1.147l-1.195-1.916q-.908.563-1.853,1.073Zm0,0" transform="translate(-920.558 -336.016)" fill="#34b4b3"/>
  <path id="Path_23" data-name="Path 23" d="M968.246,401.128l.8,2.114c.712-.268,1.425-.563,2.117-.878l-.933-2.056q-.975.441-1.979.821Zm0,0" transform="translate(-921.673 -335.438)" fill="#34b4b3"/>
  <path id="Path_24" data-name="Path 24" d="M973.624,398.383l1.318,1.836c.619-.447,1.226-.911,1.813-1.394l-1.433-1.747c-.552.451-1.118.888-1.7,1.3Zm0,0" transform="translate(-919.517 -336.732)" fill="#34b4b3"/>
  <path id="Path_25" data-name="Path 25" d="M965.322,401.938l.51,2.2c.747-.172,1.491-.371,2.212-.591l-.657-2.162c-.679.206-1.369.392-2.065.553Zm0,0" transform="translate(-922.845 -335.006)" fill="#34b4b3"/>
  <path id="Path_26" data-name="Path 26" d="M962.306,402.355l.22,2.248q1.149-.111,2.269-.3l-.366-2.229q-1.05.174-2.124.279Zm0,0" transform="translate(-924.054 -334.729)" fill="#34b4b3"/>
  <path id="Path_27" data-name="Path 27" d="M981.3,389.235l2.055.936c.317-.695.611-1.406.877-2.113l-2.112-.8c-.251.67-.527,1.328-.82,1.974Zm0,0" transform="translate(-916.44 -340.667)" fill="#34b4b3"/>
  <path id="Path_28" data-name="Path 28" d="M975.986,396.505l1.544,1.649q.836-.784,1.618-1.618l-1.647-1.545c-.488.521-.993,1.024-1.514,1.514Zm0,0" transform="translate(-918.57 -337.569)" fill="#34b4b3"/>
  <path id="Path_29" data-name="Path 29" d="M983.073,383.452l2.23.366q.183-1.124.3-2.268l-2.248-.223q-.105,1.072-.28,2.125Zm0,0" transform="translate(-915.73 -343.046)" fill="#34b4b3"/>
  <path id="Path_30" data-name="Path 30" d="M982.378,386.408l2.163.657c.221-.73.42-1.475.591-2.211l-2.2-.511c-.161.695-.346,1.385-.555,2.065Zm0,0" transform="translate(-916.008 -341.837)" fill="#34b4b3"/>
  <path id="Path_31" data-name="Path 31" d="M978.075,394.327l1.745,1.434c.485-.588.95-1.195,1.394-1.813l-1.835-1.318q-.624.868-1.3,1.7Zm0,0" transform="translate(-917.733 -338.515)" fill="#34b4b3"/>
  <path id="Path_32" data-name="Path 32" d="M979.857,391.889l1.918,1.2c.4-.65.79-1.317,1.147-1.981l-1.992-1.066q-.506.943-1.073,1.849Zm0,0" transform="translate(-917.019 -339.553)" fill="#34b4b3"/>
  <path id="Path_33" data-name="Path 33" d="M983.392,379c0,.366-.007.73-.018,1.094l2.257.071c.014-.387.021-.776.021-1.166Zm0,0" transform="translate(-915.609 -343.979)" fill="#34b4b3"/>
  <path id="Path_34" data-name="Path 34" d="M935,379.333h2.26c0-.366.007-.73.018-1.094l-2.257-.071c-.014.387-.021.776-.021,1.165Zm0,0" transform="translate(-935 -344.312)" fill="#34b4b3"/>
  <path id="Path_35" data-name="Path 35" d="M942.818,364.576l-1.745-1.434c-.483.588-.948,1.195-1.394,1.814l1.836,1.317c.416-.58.852-1.147,1.3-1.7Zm0,0" transform="translate(-933.124 -350.336)" fill="#34b4b3"/>
  <path id="Path_36" data-name="Path 36" d="M941.014,366.989l-1.916-1.195q-.605.971-1.149,1.982l1.993,1.066q.506-.943,1.072-1.853Zm0,0" transform="translate(-933.818 -349.272)" fill="#34b4b3"/>
  <path id="Path_37" data-name="Path 37" d="M944.914,362.406l-1.545-1.649q-.832.782-1.618,1.618l1.649,1.545c.49-.521.993-1.027,1.514-1.514Zm0,0" transform="translate(-932.294 -351.291)" fill="#34b4b3"/>
  <path id="Path_38" data-name="Path 38" d="M949.833,358.947l-1.068-1.992q-1.011.542-1.979,1.147l1.2,1.918c.6-.378,1.222-.734,1.851-1.073Zm0,0" transform="translate(-930.275 -352.815)" fill="#34b4b3"/>
  <path id="Path_39" data-name="Path 39" d="M955.439,356.854l-.517-2.2c-.744.174-1.482.373-2.208.594l.657,2.162q1.021-.311,2.068-.556Zm0,0" transform="translate(-927.899 -353.737)" fill="#34b4b3"/>
  <path id="Path_40" data-name="Path 40" d="M947.266,360.518l-1.319-1.834c-.619.444-1.223.911-1.811,1.392l1.434,1.747c.55-.452,1.116-.889,1.7-1.306Zm0,0" transform="translate(-931.338 -352.122)" fill="#34b4b3"/>
  <path id="Path_41" data-name="Path 41" d="M952.572,357.717l-.8-2.112c-.709.268-1.419.563-2.113.877l.936,2.056c.646-.294,1.306-.567,1.974-.821Zm0,0" transform="translate(-929.123 -353.357)" fill="#34b4b3"/>
  <path id="Path_42" data-name="Path 42" d="M958.386,356.37l-.223-2.248q-1.145.113-2.269.3l.368,2.229c.7-.118,1.409-.21,2.124-.282Zm0,0" transform="translate(-926.625 -353.951)" fill="#34b4b3"/>
  <path id="Path_43" data-name="Path 43" d="M935.119,377.184l2.248.223q.105-1.074.279-2.125l-2.23-.366q-.183,1.124-.3,2.268Zm0,0" transform="translate(-934.952 -345.616)" fill="#34b4b3"/>
  <path id="Path_44" data-name="Path 44" d="M937.476,368.675c-.315.693-.611,1.405-.878,2.117l2.114.8q.38-1.007.822-1.979Zm0,0" transform="translate(-934.359 -348.117)" fill="#34b4b3"/>
  <path id="Path_45" data-name="Path 45" d="M935.65,373.947l2.2.51q.244-1.044.553-2.068l-2.161-.656c-.22.726-.42,1.469-.591,2.213Zm0,0" transform="translate(-934.739 -346.891)" fill="#34b4b3"/>
  <path id="Path_46" data-name="Path 46" d="M960.334,356.26A32.8,32.8,0,0,1,982.91,365.3h-4.5v2.258h6.779a1.128,1.128,0,0,0,1.129-1.129v-.647l.119-.106c-.038-.043-.08-.083-.119-.127v-5.9h-2.26v3.624A35.062,35.062,0,0,0,960.334,354c-.392,0-.78.006-1.168.02l.077,2.258c.361-.013.727-.018,1.091-.018Zm0,0" transform="translate(-925.313 -354)" fill="#34b4b3"/>
  <path id="Path_47" data-name="Path 47" d="M974.376,402.571V387.884h11.959l6.448,6.448a1.128,1.128,0,0,0,.8.331,1.115,1.115,0,0,0,.433-.085,1.126,1.126,0,0,0,.7-1.044v-5.65h3.39a1.128,1.128,0,0,0,1.129-1.129V366.42a1.131,1.131,0,0,0-1.129-1.13H964.209a1.13,1.13,0,0,0-1.129,1.13v14.687H951.121l-6.448-6.448a1.129,1.129,0,0,0-1.927.8v5.65h-3.39a1.129,1.129,0,0,0-1.129,1.129v20.335a1.13,1.13,0,0,0,1.129,1.13h33.892a1.129,1.129,0,0,0,1.129-1.13ZM965.34,367.55h31.631v18.075h-3.389a1.13,1.13,0,0,0-1.13,1.13v4.051l-4.85-4.85a1.12,1.12,0,0,0-.8-.332H974.376v-3.389a1.129,1.129,0,0,0-1.129-1.129H965.34Zm6.777,33.892H940.486V383.367h3.389a1.131,1.131,0,0,0,1.131-1.13v-4.051l4.85,4.85a1.12,1.12,0,0,0,.8.332h21.464Zm0,0" transform="translate(-933.707 -349.474)" fill="#34b4b3"/>
  <rect id="Rectangle_17" data-name="Rectangle 17" width="2.259" height="2.259" transform="translate(46.318 31.632)" fill="#34b4b3"/>
  <rect id="Rectangle_18" data-name="Rectangle 18" width="2.259" height="9.038" transform="translate(46.318 20.335)" fill="#34b4b3"/>
  <path id="Path_48" data-name="Path 48" d="M950.163,384.325a2.264,2.264,0,0,1,2.678-2.222,2.26,2.26,0,0,1,.9,4.055,5.6,5.6,0,0,0-2.45,4.519v.426h2.258v-.426a3.366,3.366,0,0,1,1.514-2.687,4.52,4.52,0,1,0-7.163-3.666v1.13h2.26Zm0,0" transform="translate(-929.828 -343.655)" fill="#34b4b3"/>
  <rect id="Rectangle_19" data-name="Rectangle 19" width="2.259" height="2.259" transform="translate(21.465 48.578)" fill="#34b4b3"/>
</svg>
