<svg xmlns="http://www.w3.org/2000/svg" width="81.227" height="73.966" viewBox="0 0 81.227 73.966">
  <path id="Path_90" data-name="Path 90" d="M68.889,52.567l-.115-.059c0-.043,0-.086.006-.129.317-9-2.474-15.674-7.861-18.784s-12.56-2.192-20.2,2.585l-.109.07-.109-.07c-7.638-4.777-14.811-5.695-20.2-2.585s-8.178,9.781-7.861,18.784c0,.043,0,.086.006.129l-.115.059C4.382,56.794,0,62.547,0,68.767s4.382,11.973,12.337,16.2l.115.059c0,.043,0,.086-.006.129-.317,9,2.474,15.675,7.861,18.784a13.853,13.853,0,0,0,7.024,1.811c4.017,0,8.509-1.478,13.174-4.4l.109-.07.109.07c4.665,2.918,9.157,4.4,13.174,4.4a13.856,13.856,0,0,0,7.024-1.811c5.386-3.11,8.178-9.781,7.861-18.784,0-.043,0-.086-.006-.129l.115-.059c7.956-4.227,12.337-9.98,12.337-16.2S76.845,56.794,68.889,52.567ZM56.836,78.133a69.744,69.744,0,0,1-5.848,8.6,70.971,70.971,0,0,1-20.75,0,70.964,70.964,0,0,1-10.375-17.97A70.965,70.965,0,0,1,30.238,50.8a70.971,70.971,0,0,1,20.75,0,69.743,69.743,0,0,1,5.848,8.6,69.764,69.764,0,0,1,4.527,9.366A69.72,69.72,0,0,1,56.836,78.133Zm6.32-4.119a49.047,49.047,0,0,1,1.74,8.773,49.049,49.049,0,0,1-8.468,2.879q1.91-2.713,3.624-5.676C61.192,78.019,62.227,76.021,63.157,74.014ZM40.613,96.807a49.042,49.042,0,0,1-6.727-5.894c2.2.2,4.451.3,6.727.3s4.525-.1,6.727-.3A49.042,49.042,0,0,1,40.613,96.807ZM24.8,85.666a49.049,49.049,0,0,1-8.468-2.879,49.044,49.044,0,0,1,1.74-8.773c.929,2.007,1.965,4.005,3.1,5.977S23.524,83.858,24.8,85.666ZM21.173,57.543c-1.138,1.971-2.174,3.97-3.1,5.977a49.05,49.05,0,0,1-1.74-8.773A49.065,49.065,0,0,1,24.8,51.867Q22.888,54.58,21.173,57.543Zm19.44-16.816a49.042,49.042,0,0,1,6.727,5.894c-2.2-.2-4.451-.3-6.727-.3s-4.525.1-6.727.3A49.077,49.077,0,0,1,40.613,40.727Zm19.44,16.816q-1.707-2.957-3.624-5.676A49.049,49.049,0,0,1,64.9,54.746a49.044,49.044,0,0,1-1.74,8.773C62.227,61.513,61.192,59.514,60.054,57.543ZM53.877,35.5a10.224,10.224,0,0,1,5.185,1.313c3.867,2.233,5.983,7.165,6.027,13.972a57.429,57.429,0,0,0-12.115-3.426,57.434,57.434,0,0,0-9.023-8.778A20.6,20.6,0,0,1,53.877,35.5ZM22.164,36.812A10.224,10.224,0,0,1,27.35,35.5a20.6,20.6,0,0,1,9.926,3.081,57.427,57.427,0,0,0-9.023,8.778,57.432,57.432,0,0,0-12.115,3.426C16.182,43.976,18.3,39.044,22.164,36.812ZM3.715,68.767c0-4.465,3.214-8.763,9.087-12.2a57.431,57.431,0,0,0,3.091,12.2,57.434,57.434,0,0,0-3.091,12.2C6.929,77.53,3.715,73.232,3.715,68.767Zm18.449,31.955c-3.867-2.233-5.982-7.165-6.026-13.972a57.429,57.429,0,0,0,12.115,3.426,57.429,57.429,0,0,0,9.024,8.779C31.36,102.32,26.031,102.955,22.164,100.722Zm36.9,0c-3.867,2.233-9.2,1.6-15.113-1.767a57.429,57.429,0,0,0,9.024-8.779A57.432,57.432,0,0,0,65.089,86.75C65.045,93.557,62.93,98.489,59.063,100.722Zm9.363-19.75a57.435,57.435,0,0,0-3.091-12.2,57.434,57.434,0,0,0,3.091-12.205C74.3,60,77.512,64.3,77.512,68.766S74.3,77.53,68.425,80.972Z" transform="translate(0 -31.784)" fill="#59595a"/>
</svg>
 